# xmcd
#
# Track frame offsets:
#	150
#	10950
#	23153
#	33610
#	43595
#	61980
#	70528
#	81083
#	96640
#	106310
#	117835
#	125183
#
# Disc length: 1961 seconds
#
# Revision: 0
# Processed by: cddbd v1.5.2PL0 Copyright (c) Steve Scherf et al.
# Submitted via: dBpowerAMP V4.0
#
DISCID=a107a70c
DTITLE=Bluegrass Brethren - In His Name 
DYEAR=1992
DGENRE=Bluegrass
TTITLE0=In Heaven
TTITLE1=Half a Heart 
TTITLE2=Back to the Bible 
TTITLE3=Joy of the Lord 
TTITLE4=Lord Jesus
TTITLE5=Happy on that Day 
TTITLE6=Take Up Your Cross
TTITLE7=Bring Me Back
TTITLE8=Best Friend 
TTITLE9=In His Name 
TTITLE10=Jesus Wins
TTITLE11=The Best Day You've Ever Had
EXTD=It is  Christain Bluegrass.
EXTT0=
EXTT1=
EXTT2=
EXTT3=
EXTT4=
EXTT5=
EXTT6=
EXTT7=
EXTT8=
EXTT9=
EXTT10=
EXTT11=
PLAYORDER=
